<svg width="15" height="17" viewBox="0 0 15 17" fill="none" xmlns="http://www.w3.org/2000/svg">
<path d="M8 4.90866C9.96875 4.90866 11.5938 6.53366 11.5938 8.50241C11.5938 10.5024 9.96875 12.0962 8 12.0962C6 12.0962 4.40625 10.5024 4.40625 8.50241C4.40625 6.53366 6 4.90866 8 4.90866ZM8 10.8462C9.28125 10.8462 10.3125 9.81491 10.3125 8.50241C10.3125 7.22116 9.28125 6.18991 8 6.18991C6.6875 6.18991 5.65625 7.22116 5.65625 8.50241C5.65625 9.81491 6.71875 10.8462 8 10.8462ZM12.5625 4.78366C12.5625 5.25241 12.1875 5.62741 11.7188 5.62741C11.25 5.62741 10.875 5.25241 10.875 4.78366C10.875 4.31491 11.25 3.93991 11.7188 3.93991C12.1875 3.93991 12.5625 4.31491 12.5625 4.78366ZM14.9375 5.62741C15 6.78366 15 10.2524 14.9375 11.4087C14.875 12.5337 14.625 13.5024 13.8125 14.3462C13 15.1587 12 15.4087 10.875 15.4712C9.71875 15.5337 6.25 15.5337 5.09375 15.4712C3.96875 15.4087 3 15.1587 2.15625 14.3462C1.34375 13.5024 1.09375 12.5337 1.03125 11.4087C0.96875 10.2524 0.96875 6.78366 1.03125 5.62741C1.09375 4.50241 1.34375 3.50241 2.15625 2.68991C3 1.87741 3.96875 1.62741 5.09375 1.56491C6.25 1.50241 9.71875 1.50241 10.875 1.56491C12 1.62741 13 1.87741 13.8125 2.68991C14.625 3.50241 14.875 4.50241 14.9375 5.62741ZM13.4375 12.6274C13.8125 11.7212 13.7188 9.53366 13.7188 8.50241C13.7188 7.50241 13.8125 5.31491 13.4375 4.37741C13.1875 3.78366 12.7188 3.28366 12.125 3.06491C11.1875 2.68991 9 2.78366 8 2.78366C6.96875 2.78366 4.78125 2.68991 3.875 3.06491C3.25 3.31491 2.78125 3.78366 2.53125 4.37741C2.15625 5.31491 2.25 7.50241 2.25 8.50241C2.25 9.53366 2.15625 11.7212 2.53125 12.6274C2.78125 13.2524 3.25 13.7212 3.875 13.9712C4.78125 14.3462 6.96875 14.2524 8 14.2524C9 14.2524 11.1875 14.3462 12.125 13.9712C12.7188 13.7212 13.2188 13.2524 13.4375 12.6274Z" fill="white"/>
</svg>
